<?xml version="1.0" encoding="UTF-8"?>
<svg id="Layer_1" data-name="Layer 1" xmlns="http://www.w3.org/2000/svg" viewBox="0 0 190 190">
  <defs>
    <style>
      .cls-1 {
        fill: #ec8d4d;
      }

      .cls-1, .cls-2, .cls-3, .cls-4, .cls-5, .cls-6, .cls-7 {
        stroke-width: 0px;
      }

      .cls-2 {
        fill: #e97629;
      }

      .cls-4 {
        fill: #e97527;
      }

      .cls-5 {
        fill: #e9792e;
      }

      .cls-6 {
        fill: #e97628;
      }

      .cls-7 {
        fill: #e9772a;
      }
    </style>
  </defs>
  <path class="cls-3" d="M726,242H-21c0-91.33,0-182.67,0-274,339.33,0,678.67,0,1018,0,0,91.33,0,182.67,0,274-90.17,0-180.33,0-271,0M33.27,111.84c-5.88,12.09-5.71,21.19.86,27.21-1.11-12.83,4.57-22.56,13.52-30.4,25.55-22.41,55.73-31.2,89.19-28.27,12.97,1.13,25.17,5.39,32.15,18.06.07.13.58.02.83.02,1.29-6.81-1.12-12.66-6.34-16.37-5.71-4.06-12.05-8.08-18.71-9.8-23.98-6.21-47.23-1.81-69.67,7.42-16.52,6.8-31.57,15.82-41.81,32.14M59.07,133.64c11.37-12.79,26.11-19.85,42.23-24.21,14.28-3.86,28.84-5.42,43.36-1.27,6.61,1.89,13.03,4.85,16.36,11.35,1.75,3.41,2.16,7.5,3.7,13.22.38-1.57.43-2.31.72-2.93,4.3-8.97,1.99-19.94-6.4-25.29-5.21-3.32-11.22-6.05-17.23-7.32-19.48-4.11-38.41-.95-56.64,6.48-14.02,5.71-26.9,13.2-35.89,25.96-8.82,12.52-6.76,24.66,6.72,33.53-6.83-11.1-4.08-20.3,3.07-29.52M87.11,131.61c-7.36,4.1-14.03,8.99-18.56,16.29-3.27,5.27-4.54,10.87-1.26,16.51,3.8,6.53,10.32,8.96,17.31,10.33.34.07.84-.7,1.25-1.06-12.88-7.17-14.16-15.97-3.51-26.41,7.32-7.17,16.42-11.22,26.27-13.64,10.02-2.46,20.11-3.41,29.96.45,10.14,3.97,12.52,12.11,6.64,21.27-.67,1.04-1.23,2.14-1.84,3.22,3.1-1.97,5.66-4.35,7.65-7.13,8-11.17,4.9-21.66-7.81-26.79-1.69-.68-3.45-1.27-5.23-1.62-17.76-3.51-34.36.24-50.88,8.59M23.05,106.44c.03.16.02.34.08.49.05.12.18.21.27.32.69-.77,1.69-1.42,2.02-2.32,3.75-10.21,10.64-17.96,19.15-24.38,20.67-15.58,44.15-23.49,69.85-24.93,17.62-.98,34.53.91,48.87,14.74-3.73-10.92-11.57-15.85-20.69-19.1-12.31-4.39-25.05-4.97-37.92-3.27-24.73,3.27-47.57,11.18-66.49,28.05-8.76,7.82-15.47,17.01-15.13,30.4M542.49,93.29h13.3v-6.93c-11.55,0-22.86-.13-34.15.05-7.05.11-10.99,3.79-11.02,9.62-.03,5.96,4.18,9.92,11.19,10.2,4.99.2,10,.05,14.99.06,2.83,0,5.72-.31,8.47.16,1.41.24,2.56,1.92,3.83,2.95-1.24.98-2.36,2.32-3.77,2.84-1.32.49-2.96.11-4.46.11-9.95,0-19.9,0-29.97,0v6.91c12.21,0,24.02.17,35.83-.07,6.15-.13,10.02-5.21,9.2-11.22-.72-5.27-4.8-8.41-11.7-8.57-6.99-.17-14-.02-20.99-.06-2.46-.01-5.68.36-5.44-3.2.07-1.06,3.34-2.61,5.2-2.72,6.15-.35,12.32-.13,19.48-.13M410.37,99.72c-4.38-.54-2-3.47-2.45-6.13h38.24v-6.28h-44.84v32.08h44.79v-6.72h-37.97v-5.96h25.04v-6.97c-7.56,0-14.7,0-22.81-.02M462.68,112.37v-5.71c6.57-.78,12.29-1.92,14.77,5.82.59,1.83,3.23,3.7,5.27,4.22,5.5,1.4,11.18,2.09,17.04,3.11v-6.94c-6.1-1.7-13.59,1.39-18.45-6.77,4.32,0,7.45.18,10.57-.04,5.32-.38,8.84-3.92,9.09-8.81.25-4.84-2.95-9.63-8.02-9.83-12.22-.47-24.46-.15-36.65-.15v31.79c2.26-.1,4.16-.19,6.38-.29,0-2.15,0-3.79,0-6.39M769.81,87.08c-8.78,1.01-11.5,2.52-12.16,8.38-.59,5.23-.34,10.6.04,15.87.33,4.67,3.68,7.26,8.02,7.44,8.94.36,17.93.49,26.86.02,6.65-.35,9.21-3.53,9.64-10.36.23-3.64.26-7.32.03-10.96-.46-7.5-3.43-10.31-11.05-10.45-6.81-.13-13.63,0-21.38.06M312.98,100.3v7.05c-13.18-6.82-25.7-13.29-38.56-19.94v31.95h6.57v-20.46c13.21,6.86,25.74,13.36,38.49,19.97v-31.64h-6.51c0,4.2,0,8.16,0,13.07M702.13,106.49v12.83h7.08v-19.32c4.84,3.24,8.86,6.21,13.18,8.67,1.33.76,3.82.75,5.15,0,4.41-2.5,8.54-5.51,13.6-8.87v19.48h6.41v-31.84c-4.13,2.72-7.69,5.03-11.22,7.39q-11.34,7.59-22.66.02c-3.6-2.41-7.22-4.8-11.54-7.66,0,7,0,12.65,0,19.3M104.63,149.09c-3.16,2.11-6.93,3.69-9.28,6.48-2.13,2.51-4.39,6.89-3.54,9.44.95,2.86,5.04,5.95,8.23,6.59,11.71,2.34,22.52-.7,31.21-8.94,2.38-2.26,4.05-6.64,3.86-9.92-.26-4.49-4.86-5.87-8.87-6.66-7.24-1.42-14.16.06-21.6,3.01M576.93,100.39c-4.51,6.06-9.01,12.11-13.52,18.17.29.55.58,1.09.88,1.64,2.93-1.14,7.17-1.44,8.55-3.58,3.7-5.76,8.18-8.17,14.83-7.03,1.61.28,3.34.23,4.97,0,4.77-.67,8.42.66,10.59,5.22,2.38,5.01,6.45,5.13,11.48,3.94-8.74-11.58-17.18-22.77-25.85-34.27-4.15,5.52-7.83,10.43-11.93,15.91M224.08,113.41c8.7,6.66,23.22,7.74,32.53,2.36,4.42-2.56,7.55-6.28,7.89-11.45.38-5.75.09-11.55.09-17.84-2.47.15-4.49.27-6.65.39,0,4.57,0,8.55,0,12.54,0,7.6-2.59,11.11-10.06,12.31-3.88.62-8,.6-11.91.11-6.99-.89-9.97-4.71-10.01-11.85-.02-4.41,0-8.82,0-13.6-2.77.19-4.71.32-6.87.47,0,5.19-.57,10.09.18,14.78.62,3.89,2.8,7.52,4.82,11.78M119.93,38.19c6.18,1.21,12.36,2.42,18.55,3.63-2.39-2.31-5.07-3.88-7.95-4.94-11.87-4.38-24.16-4.6-36.47-2.8-20.52,2.98-39.18,10.39-54.8,24.44-4.59,4.13-8.31,8.93-9.94,15.03,1.93-1.45,3.35-3.28,4.92-4.96,1.7-1.82,3.43-3.65,5.36-5.23,23.12-18.94,49.81-26.69,80.33-25.17M621.94,116.15c-.53,3.47,1.84,3.13,4.04,3.12,10.81-.02,21.62-.01,32.42-.01,2.91,0,5.82,0,8.74,0v-6.59h-38.52v-25.64h-6.69c0,9.59,0,18.89,0,29.12M358.85,108.7c3.11,4.16,6.21,8.33,9.59,12.86,8.77-11.78,17.01-22.84,25.38-34.09-5.78-1.5-9.12.27-11.97,4.62-4.03,6.16-8.77,11.86-13.43,18.07-4.86-6.48-9.61-12.28-13.72-18.5-2.89-4.38-6.31-5.61-11.6-4.14,5.25,7.06,10.28,13.84,15.75,21.18M858.09,90.47c.6-1.01,1.21-2.03,1.83-3.08-5.49-1.45-8.77.41-11.6,4.75-3.95,6.06-8.62,11.65-13.38,17.97-4.98-6.61-9.89-12.44-13.97-18.81-2.87-4.48-6.32-4.88-11.44-3.88,8.6,11.55,16.85,22.62,25.42,34.11,7.87-10.55,15.29-20.5,23.15-31.06M920.46,119.16h8.26v-6.43h-38.55v-25.6h-5.99v32.03c12.04,0,23.67,0,36.28,0M332.51,119.64c1.14-.78,3.25-1.54,3.27-2.35.23-9.91.15-19.82.15-29.9h-6.83c0,10.19-.06,20.11.11,30.03.01.75,1.59,1.48,3.3,2.22M871.46,119.66c.86-.54,2.47-1.07,2.48-1.63.15-10.22.11-20.44.11-30.55h-6.74c0,10.14-.08,19.91.14,29.67.02.86,2.05,1.68,4.01,2.51M66.14,34.68c-1.3.57-2.6,1.13-5.23,2.28,11.88-2.7,22.28-5.07,32.69-7.45.06-.01.07-.2.36-1.16-9.8-.46-18.54,2.41-27.82,6.32Z"/>
  <path class="cls-4" d="M33.48,111.53c10.04-16.02,25.08-25.04,41.61-31.84,22.44-9.23,45.69-13.63,69.67-7.42,6.66,1.73,13,5.75,18.71,9.8,5.22,3.71,7.63,9.56,6.34,16.37-.25,0-.76.11-.83-.02-6.97-12.68-19.18-16.93-32.15-18.06-33.47-2.92-63.65,5.87-89.19,28.27-8.94,7.84-14.63,17.57-13.52,30.4-6.57-6.03-6.74-15.12-.65-27.52Z"/>
  <path class="cls-4" d="M58.85,133.92c-6.93,8.94-9.68,18.13-2.85,29.24-13.48-8.87-15.54-21.01-6.72-33.53,8.99-12.76,21.87-20.25,35.89-25.96,18.23-7.42,37.17-10.59,56.64-6.48,6.01,1.27,12.03,4,17.23,7.32,8.39,5.34,10.69,16.32,6.4,25.29-.3.62-.34,1.35-.72,2.93-1.54-5.72-1.95-9.81-3.7-13.22-3.33-6.5-9.75-9.46-16.36-11.35-14.52-4.14-29.08-2.58-43.36,1.27-16.12,4.35-30.86,11.42-42.46,24.49Z"/>
  <path class="cls-6" d="M87.42,131.41c16.22-8.14,32.81-11.9,50.57-8.38,1.78.35,3.54.94,5.23,1.62,12.71,5.13,15.81,15.61,7.81,26.79-1.99,2.78-4.55,5.17-7.65,7.13.61-1.07,1.17-2.18,1.84-3.22,5.89-9.15,3.5-17.29-6.64-21.27-9.85-3.86-19.94-2.91-29.96-.45-9.85,2.42-18.96,6.47-26.27,13.64-10.65,10.44-9.36,19.24,3.51,26.41-.41.36-.91,1.12-1.25,1.06-6.99-1.37-13.51-3.8-17.31-10.33-3.28-5.64-2.01-11.24,1.26-16.51,4.53-7.31,11.2-12.2,18.87-16.5Z"/>
  <path class="cls-2" d="M23.03,106.05c-.33-13,6.38-22.2,15.15-30.02,18.92-16.87,41.76-24.79,66.49-28.05,12.87-1.7,25.61-1.12,37.92,3.27,9.12,3.25,16.96,8.18,20.69,19.1-14.34-13.83-31.24-15.72-48.87-14.74-25.7,1.44-49.18,9.35-69.85,24.93-8.51,6.41-15.4,14.16-19.15,24.38-.33.9-1.33,1.55-2.02,2.32-.09-.1-.22-.19-.27-.32-.06-.15-.06-.33-.1-.88Z"/>
  <path class="cls-7" d="M104.98,148.95c7.09-2.81,14.01-4.29,21.25-2.87,4,.79,8.61,2.17,8.87,6.66.19,3.28-1.48,7.66-3.86,9.92-8.69,8.23-19.5,11.28-31.21,8.94-3.19-.64-7.28-3.72-8.23-6.59-.84-2.55,1.41-6.92,3.54-9.44,2.36-2.78,6.13-4.37,9.64-6.62M125.69,156.98c-5.41-4.84-16.07-3.84-21.52,2.28-1.17,1.32-2.33,3.9-1.79,5.18.68,1.59,3.19,3.5,4.79,3.4,4.52-.29,9.31-.83,13.35-2.68,2.43-1.12,3.66-4.86,5.17-8.18Z"/>
  <path class="cls-5" d="M119.47,38.15c-30.06-1.48-56.76,6.27-79.88,25.21-1.92,1.58-3.65,3.41-5.36,5.23-1.57,1.68-2.99,3.51-4.92,4.96,1.64-6.1,5.35-10.9,9.94-15.03,15.61-14.05,34.27-21.45,54.8-24.44,12.31-1.79,24.6-1.57,36.47,2.8,2.87,1.06,5.56,2.63,7.95,4.94-6.18-1.21-12.36-2.42-19-3.67Z"/>
  <path class="cls-1" d="M66.47,34.5c8.95-3.73,17.69-6.6,27.49-6.14-.29.95-.31,1.14-.36,1.16-10.4,2.38-20.81,4.74-32.69,7.45,2.63-1.15,3.93-1.71,5.56-2.46Z"/>
  <path class="cls-3" d="M125.82,157.36c-1.64,2.94-2.86,6.69-5.3,7.8-4.04,1.85-8.83,2.39-13.35,2.68-1.6.1-4.11-1.81-4.79-3.4-.54-1.28.62-3.86,1.79-5.18,5.45-6.12,16.11-7.11,21.65-1.9Z"/>
</svg>