<?xml version="1.0" encoding="utf-8"?>
<!-- Generator: Adobe Illustrator 28.2.0, SVG Export Plug-In . SVG Version: 6.00 Build 0)  -->
<svg version="1.1" id="Layer_1" xmlns="http://www.w3.org/2000/svg" xmlns:xlink="http://www.w3.org/1999/xlink" x="0px" y="0px"
	 viewBox="0 0 1920 274" style="enable-background:new 0 0 1920 274;" xml:space="preserve">
<style type="text/css">
	.st0{fill:#E9792E;}
	.st1{fill:#E97426;}
	.st2{fill:#E97628;}
	.st3{fill:#E9772B;}
	.st4{fill:#E9782C;}
	.st5{fill:#E9772A;}
	.st6{fill:#E97629;}
	.st7{fill:#E87121;}
	.st8{fill:#EA7D33;}
	.st9{fill:#E97527;}
	.st10{fill:#EC8D4D;}
</style>
<path class="st0" d="M1015,126.3c-6.7,0-12.8-0.2-19,0.1c-1.9,0.1-5.1,1.7-5.2,2.7c-0.2,3.6,3,3.2,5.4,3.2c7,0,14-0.1,21,0.1
	c6.9,0.2,11,3.3,11.7,8.6c0.8,6-3.1,11.1-9.2,11.2c-11.8,0.2-23.6,0.1-35.8,0.1c0-2.3,0-4.3,0-6.9c10.1,0,20,0,30,0
	c1.5,0,3.1,0.4,4.5-0.1c1.4-0.5,2.5-1.9,3.8-2.8c-1.3-1-2.4-2.7-3.8-2.9c-2.8-0.5-5.6-0.2-8.5-0.2c-5,0-10,0.1-15-0.1
	c-7-0.3-11.2-4.2-11.2-10.2c0-5.8,4-9.5,11-9.6c11.3-0.2,22.6,0,34.2,0c0,2.4,0,4.3,0,6.9C1024.3,126.3,1019.9,126.3,1015,126.3z"/>
<path class="st0" d="M883.8,132.7c7.6,0,14.8,0,22.3,0c0,2.5,0,4.5,0,7c-8.3,0-16.5,0-25,0c0,2.2,0,3.9,0,6c12.8,0,25.2,0,38,0
	c0,2.4,0,4.4,0,6.7c-14.9,0-29.7,0-44.8,0c0-10.7,0-21.2,0-32.1c14.8,0,29.7,0,44.8,0c0,1.9,0,3.8,0,6.3c-12.7,0-25.2,0-38.2,0
	C881.4,129.3,879,132.2,883.8,132.7z"/>
<path class="st1" d="M935.7,145.8c0,2.1,0,3.8,0,5.9c-2.2,0.1-4.1,0.2-6.4,0.3c0-10.6,0-21,0-31.8c12.2,0,24.4-0.3,36.7,0.2
	c5.1,0.2,8.3,5,8,9.8c-0.3,4.9-3.8,8.4-9.1,8.8c-3.1,0.2-6.2,0-10.6,0c4.9,8.2,12.4,5.1,18.5,6.8c0,1.8,0,3.7,0,6.9
	c-5.9-1-11.5-1.7-17-3.1c-2-0.5-4.7-2.4-5.3-4.2c-2.5-7.7-8.2-6.6-14.8-5.8C935.7,141.5,935.7,143.4,935.7,145.8 M962,126.3
	c-8.6,0-17.2,0-26.1,0c0,2.4,0,4.3,0,6.6c9,0,17.7,0.2,26.3-0.1c1.7-0.1,3.3-1.8,5-2.7C965.8,128.8,964.3,127.6,962,126.3z"/>
<path class="st2" d="M1243.3,120.1c7.3,0,14.1-0.2,20.9,0c7.6,0.1,10.6,2.9,11,10.4c0.2,3.6,0.2,7.3,0,11c-0.4,6.8-3,10-9.6,10.4
	c-8.9,0.5-17.9,0.3-26.9,0c-4.3-0.2-7.7-2.8-8-7.4c-0.4-5.3-0.6-10.6,0-15.9C1231.3,122.6,1234,121.1,1243.3,120.1 M1259.4,126.9
	c-3.2,0-6.3,0-9.5,0c-14,0-14.1,0-12.8,14.2c0.1,1.5,2.2,3.9,3.5,4c7.1,0.6,14.3,0.6,21.4,0.7c4.9,0.1,7.3-2.3,6.8-7.4
	c-0.1-1,0-2,0-3C1268.8,126.9,1268.8,126.9,1259.4,126.9z"/>
<path class="st3" d="M786,132.8c0-4.4,0-8.4,0-12.6c2.3,0,4.3,0,6.5,0c0,10.3,0,20.5,0,31.6c-12.8-6.6-25.3-13.1-38.5-20
	c0,7.2,0,13.7,0,20.5c-2.4,0-4.4,0-6.6,0c0-10.5,0-20.7,0-31.9c12.9,6.6,25.4,13.1,38.6,19.9C786,137.5,786,135.4,786,132.8z"/>
<path class="st4" d="M1175.1,139c0-6.2,0-11.8,0-18.8c4.3,2.9,7.9,5.3,11.5,7.7c11.3,7.6,11.3,7.6,22.7,0c3.5-2.4,7.1-4.7,11.2-7.4
	c0,11.1,0,21.3,0,31.8c-2,0-3.9,0-6.4,0c0-6.2,0-12.3,0-19.5c-5.1,3.4-9.2,6.4-13.6,8.9c-1.3,0.8-3.8,0.8-5.2,0
	c-4.3-2.5-8.3-5.4-13.2-8.7c0,6.7,0,12.9,0,19.3c-2.5,0-4.4,0-7.1,0C1175.1,148,1175.1,143.7,1175.1,139z"/>
<path class="st5" d="M1050.1,133.1c3.9-5.2,7.6-10.1,11.7-15.6c8.7,11.5,17.1,22.7,25.9,34.3c-5,1.2-9.1,1.1-11.5-3.9
	c-2.2-4.6-5.8-5.9-10.6-5.2c-1.6,0.2-3.4,0.3-5,0c-6.7-1.1-11.1,1.3-14.8,7c-1.4,2.1-5.6,2.4-8.5,3.6c-0.3-0.5-0.6-1.1-0.9-1.6
	C1040.9,145.5,1045.4,139.4,1050.1,133.1 M1059.1,135.9c2.4,0,4.8,0,8.2,0c-2.1-2.9-3.6-4.9-6.1-8.3
	C1060,131.2,1059.2,133.5,1059.1,135.9z"/>
<path class="st3" d="M696.8,146.2c-1.8-4-3.9-7.6-4.6-11.5c-0.7-4.7-0.2-9.6-0.2-14.8c2.2-0.1,4.1-0.3,6.9-0.5c0,4.8,0,9.2,0,13.6
	c0,7.1,3,11,10,11.8c3.9,0.5,8,0.5,11.9-0.1c7.5-1.2,10.1-4.7,10.1-12.3c0-4,0-8,0-12.5c2.2-0.1,4.2-0.2,6.7-0.4
	c0,6.3,0.3,12.1-0.1,17.8c-0.3,5.2-3.5,8.9-7.9,11.4C720.3,154.2,705.8,153.1,696.8,146.2z"/>
<path class="st1" d="M1094.9,148.7c0-9.8,0-19.1,0-28.7c2.2,0,4.1,0,6.7,0c0,8.4,0,16.8,0,25.6c13.2,0,25.7,0,38.5,0
	c0,2.3,0,4.1,0,6.6c-2.9,0-5.8,0-8.7,0c-10.8,0-21.6,0-32.4,0C1096.8,152.3,1094.4,152.6,1094.9,148.7z"/>
<path class="st6" d="M831.6,141.4c-5.3-7.1-10.3-13.8-15.5-20.9c5.3-1.5,8.7-0.2,11.6,4.1c4.1,6.2,8.9,12,13.7,18.5
	c4.7-6.2,9.4-11.9,13.4-18.1c2.8-4.3,6.2-6.1,12-4.6c-8.4,11.2-16.6,22.3-25.4,34.1C838.1,150,835,145.9,831.6,141.4z"/>
<path class="st2" d="M1330.9,123.8c-7.6,10.3-15.1,20.2-22.9,30.8c-8.6-11.5-16.8-22.6-25.4-34.1c5.1-1,8.6-0.6,11.4,3.9
	c4.1,6.4,9,12.2,14,18.8c4.8-6.3,9.4-11.9,13.4-18c2.8-4.3,6.1-6.2,11.6-4.8C1332.3,121.4,1331.7,122.5,1330.9,123.8z"/>
<path class="st7" d="M1393,152.2c-12.1,0-23.7,0-35.8,0c0-10.7,0-21.3,0-32c1.8,0,3.6,0,6,0c0,8.4,0,16.7,0,25.6
	c13.2,0,25.7,0,38.6,0c0,2.3,0,4,0,6.4C1399,152.2,1396.2,152.2,1393,152.2z"/>
<path class="st0" d="M805.1,152.6c-1.3-0.7-2.9-1.5-2.9-2.2c-0.2-9.9-0.1-19.8-0.1-30c2.4,0,4.3,0,6.8,0c0,10.1,0.1,20-0.1,29.9
	C808.8,151.1,806.7,151.9,805.1,152.6z"/>
<path class="st8" d="M1344,152.7c-1.5-0.8-3.6-1.6-3.6-2.5c-0.2-9.8-0.1-19.5-0.1-29.7c2.3,0,4.2,0,6.7,0c0,10.1,0,20.3-0.1,30.5
	C1346.9,151.6,1345.3,152.1,1344,152.7z"/>
<g>
	<path class="st9" d="M506.5,144.5c10-16,25.1-25,41.6-31.8c22.4-9.2,45.7-13.6,69.7-7.4c6.7,1.7,13,5.7,18.7,9.8
		c5.2,3.7,7.6,9.6,6.3,16.4c-0.3,0-0.8,0.1-0.8,0c-7-12.7-19.2-16.9-32.1-18.1c-33.5-2.9-63.6,5.9-89.2,28.3
		c-8.9,7.8-14.6,17.6-13.5,30.4C500.6,166,500.4,156.9,506.5,144.5z"/>
	<path class="st9" d="M531.8,166.9c-6.9,8.9-9.7,18.1-2.8,29.2c-13.5-8.9-15.5-21-6.7-33.5c9-12.8,21.9-20.2,35.9-26
		c18.2-7.4,37.2-10.6,56.6-6.5c6,1.3,12,4,17.2,7.3c8.4,5.3,10.7,16.3,6.4,25.3c-0.3,0.6-0.3,1.4-0.7,2.9c-1.5-5.7-2-9.8-3.7-13.2
		c-3.3-6.5-9.7-9.5-16.4-11.3c-14.5-4.1-29.1-2.6-43.4,1.3C558.2,146.8,543.4,153.9,531.8,166.9z"/>
	<path class="st2" d="M560.4,164.4c16.2-8.1,32.8-11.9,50.6-8.4c1.8,0.4,3.5,0.9,5.2,1.6c12.7,5.1,15.8,15.6,7.8,26.8
		c-2,2.8-4.6,5.2-7.7,7.1c0.6-1.1,1.2-2.2,1.8-3.2c5.9-9.2,3.5-17.3-6.6-21.3c-9.8-3.9-19.9-2.9-30-0.4c-9.9,2.4-19,6.5-26.3,13.6
		c-10.7,10.4-9.4,19.2,3.5,26.4c-0.4,0.4-0.9,1.1-1.3,1.1c-7-1.4-13.5-3.8-17.3-10.3c-3.3-5.6-2-11.2,1.3-16.5
		C546.1,173.6,552.7,168.7,560.4,164.4z"/>
	<path class="st6" d="M496,139.1c-0.3-13,6.4-22.2,15.1-30c18.9-16.9,41.8-24.8,66.5-28.1c12.9-1.7,25.6-1.1,37.9,3.3
		c9.1,3.3,17,8.2,20.7,19.1c-14.3-13.8-31.2-15.7-48.9-14.7c-25.7,1.4-49.2,9.3-69.8,24.9c-8.5,6.4-15.4,14.2-19.2,24.4
		c-0.3,0.9-1.3,1.6-2,2.3c-0.1-0.1-0.2-0.2-0.3-0.3C496.1,139.8,496.1,139.6,496,139.1z"/>
	<path class="st5" d="M578,181.9c7.1-2.8,14-4.3,21.2-2.9c4,0.8,8.6,2.2,8.9,6.7c0.2,3.3-1.5,7.7-3.9,9.9
		c-8.7,8.2-19.5,11.3-31.2,8.9c-3.2-0.6-7.3-3.7-8.2-6.6c-0.8-2.5,1.4-6.9,3.5-9.4C570.7,185.8,574.5,184.2,578,181.9 M598.7,190
		c-5.4-4.8-16.1-3.8-21.5,2.3c-1.2,1.3-2.3,3.9-1.8,5.2c0.7,1.6,3.2,3.5,4.8,3.4c4.5-0.3,9.3-0.8,13.4-2.7
		C596,197,597.2,193.3,598.7,190z"/>
	<path class="st0" d="M592.5,71.1c-30.1-1.5-56.8,6.3-79.9,25.2c-1.9,1.6-3.7,3.4-5.4,5.2c-1.6,1.7-3,3.5-4.9,5
		c1.6-6.1,5.4-10.9,9.9-15c15.6-14,34.3-21.5,54.8-24.4c12.3-1.8,24.6-1.6,36.5,2.8c2.9,1.1,5.6,2.6,7.9,4.9
		C605.3,73.6,599.1,72.4,592.5,71.1z"/>
	<path class="st10" d="M539.5,67.5c8.9-3.7,17.7-6.6,27.5-6.1c-0.3,1-0.3,1.1-0.4,1.2c-10.4,2.4-20.8,4.7-32.7,7.4
		C536.5,68.8,537.8,68.2,539.5,67.5z"/>
</g>
</svg>
